<?xml version="1.0" encoding="iso-8859-1"?>
<!-- Generator: Adobe Illustrator 19.0.0, SVG Export Plug-In . SVG Version: 6.00 Build 0)  -->
<svg version="1.1" id="Layer_1" xmlns="http://www.w3.org/2000/svg" xmlns:xlink="http://www.w3.org/1999/xlink" x="0px" y="0px"
	 viewBox="0 0 512.001 512.001" style="enable-background:new 0 0 512.001 512.001;" xml:space="preserve">
<path style="fill:#D3FDF9;" d="M462.259,323.271H54.385c-11.488,0-20.801-9.312-20.801-20.801V30.35
	c0-11.488,9.312-20.801,20.801-20.801h407.873c11.488,0,20.801,9.312,20.801,20.801v272.12
	C483.059,313.959,473.747,323.271,462.259,323.271z"/>
<g>
	<path style="fill:#4BCDB2;" d="M33.585,253.303v49.167c0,11.488,9.312,20.801,20.801,20.801h407.873
		c11.488,0,20.801-9.312,20.801-20.801v-49.167L33.585,253.303L33.585,253.303z"/>
	<path style="fill:#4BCDB2;" d="M483.059,69.992V31.225c0-11.488-9.312-20.801-20.801-20.801H54.385
		c-11.488,0-20.801,9.312-20.801,20.801v38.767C33.585,69.992,483.059,69.992,483.059,69.992z"/>
	<polygon style="fill:#4BCDB2;" points="321.261,403.469 195.383,403.469 204.556,323.271 312.088,323.271 	"/>
</g>
<path style="fill:#3EAC92;" d="M341.885,440.678H174.759c-8.62,0-15.672-7.052-15.672-15.672v-5.865
	c0-8.62,7.052-15.672,15.672-15.672h167.126c8.62,0,15.672,7.052,15.672,15.672v5.865
	C357.557,433.626,350.504,440.678,341.885,440.678z"/>
<circle style="fill:#328777;" cx="259.35" cy="287.67" r="18.762"/>
<path style="fill:#FFEB99;" d="M352.993,210.586H165.71c-13.156,0-23.921-10.764-23.921-23.921v-58.941
	c0-13.156,10.764-23.921,23.921-23.921h187.283c13.156,0,23.921,10.764,23.921,23.921v58.941
	C376.914,199.822,366.149,210.586,352.993,210.586z"/>
<g>
	<path style="fill:#FFD422;" d="M287.735,188.929h-56.768c-3.271,0-5.948-2.676-5.948-5.948v-11.656
		c0-3.271,2.676-5.948,5.948-5.948h56.768c3.271,0,5.948,2.676,5.948,5.948v11.656C293.683,186.253,291.006,188.929,287.735,188.929
		z"/>
	<path style="fill:#FFD422;" d="M340.453,143.656H178.25c-4.309,0-7.8-3.491-7.8-7.8s3.491-7.8,7.8-7.8h162.204
		c4.309,0,7.8,3.491,7.8,7.8C348.254,140.165,344.762,143.656,340.453,143.656z"/>
</g>
<g>
	<path style="fill:#3EAC92;" d="M409.179,505.949H107.466c-7.162,0-13.02-5.86-13.02-13.02v-11.168c0-7.162,5.86-13.02,13.02-13.02
		h301.712c7.162,0,13.02,5.86,13.02,13.02v11.168C422.199,500.091,416.339,505.949,409.179,505.949z"/>
	<path style="fill:#3EAC92;" d="M109.26,440.678H41.964c-7.162,0-13.02-5.86-13.02-13.02v-67.297c0-7.162,5.86-13.02,13.02-13.02
		h67.297c7.162,0,13.02,5.86,13.02,13.02v67.297C122.281,434.818,116.422,440.678,109.26,440.678z"/>
	<path style="fill:#3EAC92;" d="M470.039,440.678h-67.297c-7.161,0-13.02-5.86-13.02-13.02v-67.297c0-7.162,5.86-13.02,13.02-13.02
		h67.297c7.162,0,13.02,5.86,13.02,13.02v67.297C483.059,434.818,477.2,440.678,470.039,440.678z"/>
	<polygon style="fill:#3EAC92;" points="312.088,323.271 204.556,323.271 199.393,368.415 317.251,368.415 	"/>
</g>
<path style="fill:#328777;" d="M94.445,487.345v5.584c0,7.162,5.86,13.02,13.02,13.02h301.712c7.161,0,13.02-5.86,13.02-13.02
	v-5.584H94.445z"/>
<g>
	<path style="fill:#50000F;" d="M462.259,0H54.385c-15.77,0-28.601,12.83-28.601,28.601v272.12
		c0,15.771,12.831,28.601,28.601,28.601h141.427l-7.388,64.597h-13.666c-11.884,0-21.728,8.881-23.258,20.354h-21.419v-55.662
		c0-11.481-9.339-20.82-20.82-20.82H41.964c-11.481,0-20.821,9.339-20.821,20.82v67.297c0,11.481,9.339,20.821,20.821,20.821h67.297
		c10.123,0,18.572-7.266,20.43-16.855h22.551c2.864,9.729,11.871,16.855,22.516,16.855h167.126c10.645,0,19.651-7.125,22.516-16.855
		h17.91c1.859,9.589,10.308,16.855,20.431,16.855h67.296c11.481,0,20.821-9.34,20.821-20.821v-67.297
		c0-11.481-9.339-20.82-20.821-20.82h-67.296c-11.481,0-20.821,9.339-20.821,20.82v55.662h-16.778
		c-1.531-11.473-11.374-20.354-23.258-20.354h-13.666l-7.389-64.597h141.428c15.771,0,28.601-12.83,28.601-28.601V28.601
		C490.859,12.83,478.03,0,462.259,0z M41.385,77.792h433.874v165.964H41.385V77.792z M54.385,15.6h407.873c7.169,0,13,5.831,13,13
		v33.591H41.385v-33.59C41.385,21.432,47.217,15.6,54.385,15.6z M114.48,425.908c0,2.83-2.39,5.221-5.22,5.221H41.964
		c-2.83,0-5.221-2.391-5.221-5.221v-67.297c0-2.83,2.391-5.22,5.221-5.22h67.297c2.83,0,5.22,2.39,5.22,5.22L114.48,425.908
		L114.48,425.908z M397.522,358.611c0-2.83,2.391-5.22,5.221-5.22h67.296c2.83,0,5.221,2.39,5.221,5.22v67.297
		c0,2.83-2.391,5.221-5.221,5.221h-67.297c-2.83,0-5.221-2.391-5.221-5.221v-67.297H397.522z M349.757,417.392v5.865
		c0,4.34-3.532,7.872-7.871,7.872H174.758c-4.34,0-7.871-3.532-7.871-7.872v-0.7c0.01-0.16,0.024-0.32,0.024-0.483
		s-0.015-0.322-0.024-0.483v-4.199c0-4.34,3.532-7.872,7.871-7.872h20.625H321.26h20.625
		C346.226,409.52,349.757,413.052,349.757,417.392z M312.517,393.919H204.126l7.388-64.597h93.613L312.517,393.919z
		 M462.259,313.722H312.087H204.556H54.385c-7.169,0-13-5.831-13-13v-41.365h433.874v41.365
		C475.259,307.89,469.427,313.722,462.259,313.722z"/>
	<path style="fill:#50000F;" d="M259.351,259.361c-14.647,0-26.562,11.917-26.562,26.563c0,14.647,11.916,26.563,26.562,26.563
		c14.647,0,26.563-11.917,26.563-26.563C285.914,271.278,273.998,259.361,259.351,259.361z M259.351,296.888
		c-6.045,0-10.962-4.918-10.962-10.963s4.918-10.963,10.962-10.963c6.046,0,10.963,4.918,10.963,10.963
		C270.314,291.969,265.397,296.888,259.351,296.888z"/>
	<path style="fill:#50000F;" d="M352.993,95.803H165.71c-17.49,0-31.721,14.23-31.721,31.721v58.941
		c0,17.491,14.231,31.721,31.721,31.721h187.283c17.49,0,31.721-14.23,31.721-31.721v-58.941
		C384.714,110.033,370.484,95.803,352.993,95.803z M369.114,186.465c0,8.889-7.231,16.12-16.12,16.12H165.71
		c-8.889,0-16.12-7.231-16.12-16.12v-58.941c0-8.889,7.231-16.12,16.12-16.12h187.283c8.889,0,16.12,7.231,16.12,16.12v58.941
		H369.114z"/>
	<path style="fill:#50000F;" d="M287.735,157.376h-56.768c-7.581,0-13.748,6.167-13.748,13.748v11.656
		c0,7.581,6.167,13.748,13.748,13.748h56.768c7.581,0,13.748-6.167,13.748-13.748v-11.656
		C301.484,163.544,295.316,157.376,287.735,157.376z M285.883,180.927H232.82v-7.951h53.063V180.927z"/>
	<path style="fill:#50000F;" d="M340.453,127.855H178.251c-4.309,0-7.8,3.492-7.8,7.8s3.491,7.8,7.8,7.8h162.203
		c4.309,0,7.8-3.492,7.8-7.8S344.761,127.855,340.453,127.855z"/>
	<path style="fill:#50000F;" d="M446.955,178.617l-18.406-8.43c-0.235-0.108-0.476-0.204-0.721-0.288
		c-0.016-0.005-0.032-0.008-0.048-0.015c-0.227-0.076-0.456-0.144-0.69-0.199c-0.009-0.002-0.019-0.003-0.028-0.005
		c-1.205-0.282-2.488-0.282-3.748,0.051c-0.25,0.066-0.496,0.142-0.739,0.233c-0.245,0.092-0.485,0.194-0.718,0.309
		c-0.154,0.076-0.3,0.162-0.447,0.246c-0.074,0.043-0.151,0.079-0.223,0.124c-0.181,0.111-0.353,0.234-0.522,0.359
		c-0.034,0.025-0.072,0.047-0.105,0.073c-0.172,0.131-0.334,0.27-0.492,0.414c-0.029,0.027-0.061,0.05-0.09,0.077
		c-0.15,0.139-0.289,0.287-0.426,0.437c-0.034,0.037-0.073,0.073-0.107,0.111c-0.123,0.14-0.236,0.287-0.348,0.436
		c-0.042,0.055-0.087,0.106-0.129,0.162c-0.103,0.142-0.196,0.292-0.288,0.442c-0.042,0.067-0.088,0.13-0.128,0.198
		c-0.116,0.201-0.222,0.407-0.32,0.617c-0.009,0.02-0.022,0.038-0.03,0.058l-8.432,18.414c-1.794,3.917-0.072,8.546,3.844,10.339
		c1.054,0.483,2.156,0.71,3.243,0.71c2.958,0,5.786-1.69,7.097-4.554l0.591-1.29l8.064,21.692c1.169,3.142,4.146,5.084,7.312,5.084
		c0.903,0,1.821-0.158,2.717-0.491c4.038-1.501,6.095-5.992,4.594-10.03l-8.064-21.692l1.29,0.591
		c3.916,1.792,8.546,0.073,10.34-3.844C452.593,185.039,450.871,180.41,446.955,178.617z"/>
	<path style="fill:#50000F;" d="M409.179,459.191H107.465c-11.48,0-20.82,9.34-20.82,20.821v11.168
		c0,11.481,9.339,20.821,20.82,20.821h301.713c11.48,0,20.82-9.34,20.82-20.821v-11.168
		C429.999,468.532,420.658,459.191,409.179,459.191z M414.398,491.18c0,2.83-2.39,5.221-5.22,5.221H107.465
		c-2.83,0-5.22-2.391-5.22-5.221v-11.168c0-2.83,2.39-5.221,5.22-5.221h301.713c2.83,0,5.22,2.391,5.22,5.221V491.18L414.398,491.18
		z"/>
	<path style="fill:#50000F;" d="M75.612,358.865c-18.415,0-33.395,14.981-33.395,33.395c0,18.415,14.981,33.395,33.395,33.395
		s33.394-14.981,33.394-33.395C109.006,373.846,94.026,358.865,75.612,358.865z M75.612,410.054
		c-9.813,0-17.795-7.982-17.795-17.795c0-9.813,7.983-17.795,17.795-17.795s17.794,7.982,17.794,17.795
		S85.425,410.054,75.612,410.054z"/>
	<path style="fill:#50000F;" d="M436.391,425.655c18.414,0,33.394-14.981,33.394-33.395c0-18.415-14.981-33.395-33.394-33.395
		c-18.415,0-33.395,14.981-33.395,33.395S417.976,425.655,436.391,425.655z M436.391,374.466c9.813,0,17.794,7.982,17.794,17.795
		c0,9.813-7.982,17.795-17.794,17.795s-17.795-7.982-17.795-17.795C418.596,382.448,426.578,374.466,436.391,374.466z"/>
</g>
<g>
</g>
<g>
</g>
<g>
</g>
<g>
</g>
<g>
</g>
<g>
</g>
<g>
</g>
<g>
</g>
<g>
</g>
<g>
</g>
<g>
</g>
<g>
</g>
<g>
</g>
<g>
</g>
<g>
</g>
</svg>
