<?xml version="1.0" encoding="UTF-8"?>
<!DOCTYPE svg PUBLIC "-//W3C//DTD SVG 1.1//EN" "http://www.w3.org/Graphics/SVG/1.1/DTD/svg11.dtd">
<!-- Creator: CorelDRAW -->
<svg xmlns="http://www.w3.org/2000/svg" xml:space="preserve" width="2048px" height="2048px" style="shape-rendering:geometricPrecision; text-rendering:geometricPrecision; image-rendering:optimizeQuality; fill-rule:evenodd; clip-rule:evenodd"
viewBox="0 0 2048 2048"
 xmlns:xlink="http://www.w3.org/1999/xlink">
 <defs>
  <style type="text/css">
   <![CDATA[
    .fil2 {fill:none}
    .fil8 {fill:#2196F3}
    .fil10 {fill:#283540}
    .fil7 {fill:#29343E}
    .fil11 {fill:#2A3B4A}
    .fil6 {fill:#2F3F4D}
    .fil5 {fill:#354452}
    .fil1 {fill:#43A047}
    .fil12 {fill:#64B5F6}
    .fil0 {fill:#66BB6A}
    .fil13 {fill:#8BC34A}
    .fil4 {fill:#BA7B0F}
    .fil14 {fill:#FFC107}
    .fil9 {fill:#FFFFFE}
    .fil3 {fill:#BA7B0F;fill-rule:nonzero}
   ]]>
  </style>
   <clipPath id="id0">
    <path d="M1024 -0.0011811c565.541,0 1024,458.461 1024,1024 0,565.541 -458.461,1024 -1024,1024 -565.541,0 -1024,-458.461 -1024,-1024 0,-565.541 458.461,-1024 1024,-1024z"/>
   </clipPath>
 </defs>
 <g id="Layer_x0020_1">
  <metadata id="CorelCorpID_0Corel-Layer"/>
  <path class="fil0" d="M1024 -0.0011811c565.541,0 1024,458.461 1024,1024 0,565.541 -458.461,1024 -1024,1024 -565.541,0 -1024,-458.461 -1024,-1024 0,-565.541 458.461,-1024 1024,-1024z"/>
  <g style="clip-path:url(#id0)">
   <g id="_452527376">
    <path id="_4525239681" class="fil1" d="M2719.1 2124.05l0.427559 0.364961 1.23425 1.12795 1.1941 1.16929 1.15394 1.21063 1.1126 1.24961 -5.12244 -5.12244zm-1410.19 -1565.81l-15.1158 0 -37.6394 0 -15.1158 0 -37.6394 0 -15.1146 0 -37.6394 0 -15.1146 0 -37.6394 0 -15.1158 0 -37.6382 0 -15.1158 0 -37.6394 0 -15.1158 0 -37.6394 0 -439.639 0c-0.434646,0 -0.868111,0.00590552 -1.30158,0.0165354 -0.432284,0.0106299 -0.863386,0.0271654 -1.29449,0.0496063 -0.431103,0.022441 -0.861024,0.0507874 -1.28976,0.0826772 -0.42874,0.0330709 -0.8563,0.0696851 -1.2815,0.113386 -0.426378,0.0437008 -0.851575,0.0921261 -1.27441,0.146457 -0.424016,0.0543308 -0.84567,0.113386 -1.26732,0.177165 -0.420473,0.0637796 -0.840946,0.134646 -1.25906,0.209055 -0.411024,0.0732284 -0.819686,0.15 -1.22835,0.233858l-0.0212599 0.00472441 -0.0011811 0 -0.0200788 0.00472441c-0.408662,0.0838583 -0.816142,0.17126 -1.22126,0.264567 -0.412205,0.0944883 -0.823229,0.19252 -1.23189,0.297638 -0.408662,0.103937 -0.814961,0.214961 -1.22126,0.328347 -0.405118,0.114567 -0.809056,0.233858 -1.21181,0.357874 -0.401575,0.124016 -0.804331,0.251575 -1.20236,0.38504 -0.399213,0.133465 -0.794883,0.270473 -1.18937,0.413386 -0.394488,0.141732 -0.787796,0.290551 -1.17874,0.441733 -0.390945,0.152362 -0.779528,0.307087 -1.16693,0.468898 -0.400394,0.166536 -0.798426,0.337796 -1.1941,0.51378 -0.39567,0.175984 -0.787796,0.354331 -1.17756,0.539764 -0.389764,0.184252 -0.775985,0.37441 -1.15984,0.568111 -0.383859,0.193701 -0.765355,0.392126 -1.14331,0.594095 -0.377953,0.201969 -0.753544,0.409843 -1.12559,0.620079 -0.372048,0.211417 -0.740552,0.426378 -1.10669,0.646063 -0.366142,0.219685 -0.728741,0.444095 -1.0878,0.672048 -0.360236,0.227953 -0.715749,0.459449 -1.07008,0.69567 -0.35315,0.236221 -0.701575,0.475985 -1.04882,0.720473 -0.346063,0.244488 -0.689764,0.49252 -1.02992,0.744095 -0.340158,0.251575 -0.675591,0.507874 -1.00866,0.767717 -0.333071,0.259843 -0.662599,0.522048 -0.988583,0.790158 -0.325985,0.266929 -0.648426,0.538583 -0.967324,0.812599 -0.318898,0.275197 -0.634252,0.552756 -0.944883,0.83504 -0.31063,0.282284 -0.618898,0.568111 -0.922442,0.857481 -0.303544,0.28937 -0.603544,0.581103 -0.900001,0.87756l0 0.0826772c-0.298819,0.298819 -0.592914,0.601182 -0.884646,0.907087 -0.291733,0.305906 -0.578741,0.615355 -0.862205,0.927166 -0.283465,0.312992 -0.565748,0.628347 -0.840946,0.948426 -0.276378,0.320079 -0.548032,0.64252 -0.816142,0.968505 -0.26811,0.325985 -0.532678,0.655512 -0.793701,0.988583 -0.261024,0.333071 -0.517323,0.668504 -0.770079,1.00866 -0.252756,0.338977 -0.500788,0.681497 -0.745276,1.02638 -0.244488,0.344882 -0.484252,0.693308 -0.720473,1.04528 -0.236221,0.351969 -0.467717,0.707481 -0.69567,1.06417 -0.227953,0.357874 -0.451181,0.718111 -0.669686,1.08071 -0.218504,0.362599 -0.433465,0.728741 -0.643701,1.09843 -0.210236,0.368504 -0.416929,0.739371 -0.617717,1.11378 -0.200788,0.37441 -0.396851,0.752363 -0.589371,1.1315 -0.19252,0.379134 -0.380315,0.762993 -0.563386,1.14685 -0.18189,0.38504 -0.360236,0.772442 -0.533859,1.16221 -0.173622,0.388583 -0.34252,0.780709 -0.506693,1.17638 -0.16063,0.387402 -0.317717,0.775985 -0.468898,1.16693 -0.152362,0.390945 -0.298819,0.784253 -0.441733,1.17874 -0.142913,0.394488 -0.281103,0.791339 -0.413386,1.19055 -0.133465,0.399213 -0.262205,0.800788 -0.386221,1.20236 -0.124016,0.402756 -0.243307,0.806694 -0.356693,1.21181 -0.114567,0.4063 -0.223229,0.81378 -0.328347,1.22244 -0.103937,0.408662 -0.204331,0.819686 -0.298819,1.23189 -0.0944883,0.412205 -0.184252,0.826772 -0.269292,1.24134 -0.0850394,0.415748 -0.164173,0.831497 -0.238583,1.25079 -0.0744095,0.418111 -0.144095,0.836221 -0.207874,1.25787 -0.0637796,0.420473 -0.124016,0.844489 -0.177165,1.26732 -0.0543308,0.424016 -0.102756,0.848032 -0.146457,1.27441 -0.0437008,0.426378 -0.0814961,0.853938 -0.114567,1.28268 -0.0330709,0.42874 -0.0602363,0.857481 -0.0814961,1.28858 -0.0212599,0.429922 -0.0377953,0.863386 -0.0496063,1.29567 -0.0106299,0.433465 -0.0165354,0.865749 -0.0165354,1.30158l0 95.5678 0 0.737008 0 96.3036c0,0.434646 0.00590552,0.868111 0.0165354,1.30158 0.0106299,0.432284 0.0271654,0.863386 0.0496063,1.29449 0.022441,0.431103 0.0496063,0.861024 0.0814961,1.28976 0.0330709,0.42874 0.0708662,0.8563 0.114567,1.2815 0.0437008,0.426378 0.0921261,0.851575 0.146457,1.27441 0.0543308,0.424016 0.113386,0.84567 0.177165,1.26732 0.0637796,0.420473 0.133465,0.840946 0.207874,1.25906 0.0744095,0.418111 0.154725,0.83504 0.238583,1.25079 0.0850394,0.415748 0.173622,0.829134 0.269292,1.24134 0.0944883,0.412205 0.193701,0.823229 0.298819,1.23189 0.103937,0.408662 0.214961,0.817323 0.328347,1.22244 0.114567,0.4063 0.232677,0.809056 0.356693,1.21181 0.124016,0.402756 0.252756,0.80315 0.386221,1.20236 0.133465,0.399213 0.270473,0.796064 0.413386,1.19055 0.141732,0.394488 0.290551,0.787796 0.441733,1.17874 0.152362,0.390945 0.307087,0.779528 0.468898,1.16693 0.166536,0.400394 0.337796,0.798426 0.51378,1.1941 0.175984,0.39567 0.355512,0.787796 0.540945,1.17756 0.184252,0.389764 0.373229,0.774804 0.56693,1.15984 0.193701,0.383859 0.392126,0.765355 0.594095,1.14331 0.201969,0.377953 0.409843,0.753544 0.62126,1.12559 0.211417,0.372048 0.426378,0.740552 0.646063,1.10669 0.219685,0.366142 0.442914,0.728741 0.670867,1.08898 0.227953,0.360236 0.459449,0.714567 0.69567,1.0689 0.236221,0.35315 0.475985,0.702756 0.720473,1.05 0.244488,0.346063 0.491339,0.689764 0.742914,1.02992 0.251575,0.340158 0.507874,0.676772 0.767717,1.00984 0.259843,0.333071 0.522048,0.661418 0.790158,0.987402 0.266929,0.325985 0.539764,0.648426 0.81378,0.967324 0.275197,0.318898 0.552756,0.634252 0.83504,0.944883 0.281103,0.31063 0.56693,0.618898 0.8563,0.922442 0.28937,0.303544 0.581103,0.603544 0.87756,0.900001l36.9059 36.9059 -0.167717 0c-0.434646,0 -0.868111,0.00590552 -1.30158,0.0165354 -0.432284,0.0106299 -0.863386,0.0271654 -1.29449,0.0496063 -0.431103,0.022441 -0.861024,0.0496063 -1.28976,0.0814961 -0.42874,0.0330709 -0.8563,0.0708662 -1.2815,0.114567 -0.426378,0.0437008 -0.851575,0.0921261 -1.27441,0.146457 -0.424016,0.0543308 -0.84567,0.113386 -1.26732,0.177165 -0.420473,0.0637796 -0.840946,0.133465 -1.25906,0.207874 -0.411024,0.0732284 -0.819686,0.152362 -1.22835,0.233858l-0.0212599 0.00472441 -0.0011811 0 -0.0283465 0.00590552c-0.405118,0.0826772 -0.810237,0.17126 -1.21299,0.263386 -0.412205,0.0944883 -0.823229,0.193701 -1.23189,0.298819 -0.408662,0.103937 -0.814961,0.214961 -1.22126,0.328347 -0.405118,0.114567 -0.809056,0.232677 -1.21181,0.356693 -0.401575,0.124016 -0.804331,0.252756 -1.20236,0.386221 -0.399213,0.133465 -0.794883,0.270473 -1.18937,0.413386 -0.394488,0.141732 -0.787796,0.290551 -1.17874,0.441733 -0.390945,0.152362 -0.779528,0.307087 -1.16693,0.468898 -0.400394,0.166536 -0.798426,0.337796 -1.1941,0.512599 -0.39567,0.175984 -0.787796,0.355512 -1.17756,0.540945 -0.389764,0.184252 -0.775985,0.37441 -1.15984,0.568111 -0.383859,0.193701 -0.765355,0.392126 -1.14331,0.594095 -0.377953,0.201969 -0.753544,0.408662 -1.12559,0.620079 -0.372048,0.211417 -0.740552,0.426378 -1.10669,0.646063 -0.366142,0.219685 -0.728741,0.442914 -1.0878,0.670867 -0.360236,0.227953 -0.715749,0.459449 -1.07008,0.69567 -0.35315,0.236221 -0.701575,0.475985 -1.04882,0.720473 -0.346063,0.244488 -0.689764,0.49252 -1.02992,0.744095 -0.340158,0.251575 -0.675591,0.507874 -1.00866,0.767717 -0.333071,0.259843 -0.662599,0.522048 -0.988583,0.790158 -0.325985,0.266929 -0.648426,0.538583 -0.967324,0.812599 -0.318898,0.275197 -0.634252,0.552756 -0.944883,0.83504 -0.31063,0.282284 -0.618898,0.568111 -0.922442,0.857481 -0.303544,0.28937 -0.603544,0.581103 -0.900001,0.87756l0 0.0838583c-0.298819,0.298819 -0.592914,0.601182 -0.884646,0.907087 -0.291733,0.305906 -0.578741,0.615355 -0.862205,0.927166 -0.283465,0.312992 -0.565748,0.628347 -0.840946,0.948426 -0.276378,0.318898 -0.548032,0.64252 -0.816142,0.968505 -0.26811,0.325985 -0.532678,0.655512 -0.793701,0.988583 -0.261024,0.333071 -0.517323,0.668504 -0.770079,1.00748 -0.252756,0.338977 -0.500788,0.682678 -0.745276,1.02756 -0.244488,0.344882 -0.484252,0.693308 -0.720473,1.04528 -0.236221,0.350788 -0.467717,0.7063 -0.69567,1.06299 -0.227953,0.357874 -0.451181,0.718111 -0.669686,1.08071 -0.218504,0.362599 -0.433465,0.728741 -0.643701,1.09843 -0.210236,0.368504 -0.416929,0.740552 -0.617717,1.11496 -0.200788,0.37441 -0.396851,0.752363 -0.589371,1.1315 -0.19252,0.379134 -0.380315,0.761812 -0.563386,1.14567 -0.18189,0.38504 -0.360236,0.772442 -0.533859,1.16221 -0.173622,0.389764 -0.34252,0.78189 -0.506693,1.17756 -0.16063,0.387402 -0.317717,0.775985 -0.468898,1.16693 -0.152362,0.390945 -0.298819,0.784253 -0.441733,1.17874 -0.142913,0.394488 -0.281103,0.791339 -0.413386,1.19055 -0.133465,0.399213 -0.262205,0.799607 -0.386221,1.20118 -0.124016,0.402756 -0.243307,0.806694 -0.356693,1.21181 -0.114567,0.4063 -0.223229,0.81378 -0.328347,1.22244 -0.103937,0.408662 -0.204331,0.819686 -0.298819,1.23189 -0.0944883,0.412205 -0.184252,0.825591 -0.269292,1.24134 -0.0850394,0.415748 -0.164173,0.831497 -0.238583,1.25079 -0.0744095,0.418111 -0.144095,0.836221 -0.207874,1.25787 -0.0637796,0.420473 -0.124016,0.844489 -0.177165,1.26732 -0.0543308,0.424016 -0.102756,0.848032 -0.146457,1.27441 -0.0437008,0.426378 -0.0814961,0.853938 -0.114567,1.28268 -0.0330709,0.42874 -0.0602363,0.857481 -0.0814961,1.28858 -0.0212599,0.429922 -0.0377953,0.863386 -0.0496063,1.29567 -0.0106299,0.433465 -0.0165354,0.865749 -0.0165354,1.30158l0 95.569 0 0.735827 0 96.3036c0,0.434646 0.00590552,0.868111 0.0165354,1.30158 0.0106299,0.432284 0.0271654,0.863386 0.0496063,1.29449 0.022441,0.431103 0.0496063,0.861024 0.0814961,1.28976 0.0330709,0.42874 0.0708662,0.855119 0.114567,1.2815 0.0437008,0.426378 0.0921261,0.852757 0.146457,1.27559 0.0543308,0.424016 0.113386,0.84567 0.177165,1.26614 0.0637796,0.421654 0.133465,0.840946 0.207874,1.25906 0.0744095,0.418111 0.154725,0.83504 0.238583,1.25079 0.0850394,0.415748 0.173622,0.829134 0.269292,1.24134 0.0944883,0.412205 0.193701,0.82441 0.298819,1.23307 0.103937,0.408662 0.214961,0.816142 0.328347,1.22126 0.114567,0.4063 0.232677,0.811418 0.356693,1.21299 0.124016,0.402756 0.252756,0.801969 0.386221,1.20118 0.133465,0.398032 0.270473,0.794883 0.413386,1.19055 0.141732,0.394488 0.290551,0.787796 0.441733,1.17874 0.152362,0.390945 0.307087,0.779528 0.468898,1.16693 0.166536,0.400394 0.337796,0.798426 0.51378,1.1941 0.175984,0.39567 0.355512,0.787796 0.540945,1.17756 0.184252,0.389764 0.373229,0.774804 0.56693,1.15984 0.193701,0.383859 0.392126,0.765355 0.594095,1.14331 0.201969,0.377953 0.409843,0.753544 0.62126,1.12559 0.211417,0.372048 0.426378,0.740552 0.646063,1.10669 0.219685,0.366142 0.442914,0.728741 0.670867,1.08898 0.217323,0.34252 0.437008,0.681497 0.661418,1.01811l0.034252 0.0507874 0 0.0011811 0.0318898 0.046063c0.225591,0.337796 0.455906,0.672048 0.688583,1.00276 0.244488,0.347244 0.491339,0.689764 0.742914,1.02992 0.251575,0.340158 0.507874,0.676772 0.767717,1.00984 0.259843,0.333071 0.522048,0.661418 0.790158,0.987402 0.266929,0.325985 0.539764,0.648426 0.81378,0.967324 0.275197,0.318898 0.552756,0.634252 0.83504,0.944883 0.281103,0.31063 0.56693,0.618898 0.8563,0.922442 0.28937,0.303544 0.581103,0.603544 0.87756,0.900001l35.0079 35.0079 -0.865749 0.0377953c-0.431103,0.022441 -0.861024,0.0507874 -1.28976,0.0826772 -0.42874,0.0330709 -0.8563,0.0696851 -1.2815,0.113386 -0.426378,0.0437008 -0.851575,0.0921261 -1.27441,0.146457 -0.424016,0.0543308 -0.84567,0.113386 -1.26732,0.177165 -0.420473,0.0637796 -0.840946,0.134646 -1.25906,0.209055 -0.411024,0.0732284 -0.819686,0.15 -1.22835,0.233858l-0.0212599 0.00472441 -0.0011811 0 -0.0200788 0.00472441c-0.408662,0.0838583 -0.816142,0.17126 -1.22126,0.264567 -0.412205,0.0944883 -0.823229,0.19252 -1.23189,0.297638 -0.408662,0.103937 -0.814961,0.214961 -1.22126,0.328347 -0.405118,0.114567 -0.809056,0.233858 -1.21181,0.357874 -0.401575,0.124016 -0.804331,0.251575 -1.20236,0.38504 -0.399213,0.133465 -0.794883,0.270473 -1.18937,0.413386 -0.394488,0.141732 -0.787796,0.290551 -1.17874,0.441733 -0.390945,0.152362 -0.779528,0.307087 -1.16693,0.468898 -0.400394,0.166536 -0.798426,0.337796 -1.1941,0.51378 -0.39567,0.175984 -0.787796,0.354331 -1.17756,0.539764 -0.389764,0.184252 -0.775985,0.37441 -1.15984,0.568111 -0.383859,0.193701 -0.765355,0.392126 -1.14331,0.594095 -0.377953,0.201969 -0.753544,0.409843 -1.12559,0.620079 -0.372048,0.211417 -0.740552,0.426378 -1.10669,0.646063 -0.366142,0.219685 -0.728741,0.444095 -1.0878,0.672048 -0.360236,0.227953 -0.715749,0.459449 -1.07008,0.69567 -0.35315,0.236221 -0.701575,0.475985 -1.04882,0.720473 -0.346063,0.244488 -0.689764,0.49252 -1.02992,0.744095 -0.340158,0.251575 -0.675591,0.507874 -1.00866,0.767717 -0.333071,0.259843 -0.662599,0.522048 -0.988583,0.790158 -0.325985,0.266929 -0.648426,0.538583 -0.967324,0.812599 -0.318898,0.275197 -0.634252,0.552756 -0.944883,0.83504 -0.31063,0.282284 -0.618898,0.568111 -0.922442,0.857481 -0.303544,0.28937 -0.603544,0.581103 -0.900001,0.87756l0 0.0826772c-0.298819,0.298819 -0.592914,0.601182 -0.884646,0.907087 -0.291733,0.305906 -0.578741,0.615355 -0.862205,0.927166 -0.283465,0.312992 -0.565748,0.628347 -0.840946,0.948426 -0.276378,0.320079 -0.548032,0.64252 -0.816142,0.968505 -0.26811,0.325985 -0.532678,0.655512 -0.793701,0.988583 -0.261024,0.333071 -0.517323,0.668504 -0.770079,1.00866 -0.252756,0.338977 -0.500788,0.681497 -0.745276,1.02638 -0.244488,0.344882 -0.484252,0.693308 -0.720473,1.04528 -0.236221,0.351969 -0.467717,0.707481 -0.69567,1.06417 -0.227953,0.357874 -0.451181,0.718111 -0.669686,1.08071 -0.218504,0.362599 -0.433465,0.728741 -0.643701,1.09843 -0.210236,0.368504 -0.416929,0.739371 -0.617717,1.11378 -0.200788,0.37441 -0.396851,0.752363 -0.589371,1.1315 -0.19252,0.379134 -0.380315,0.762993 -0.563386,1.14685 -0.18189,0.38504 -0.360236,0.772442 -0.533859,1.16221 -0.173622,0.388583 -0.34252,0.780709 -0.506693,1.17638 -0.16063,0.387402 -0.317717,0.775985 -0.468898,1.16693 -0.152362,0.390945 -0.298819,0.784253 -0.441733,1.17874 -0.142913,0.394488 -0.281103,0.791339 -0.413386,1.19055 -0.133465,0.399213 -0.262205,0.800788 -0.386221,1.20236 -0.124016,0.402756 -0.243307,0.806694 -0.356693,1.21181 -0.114567,0.4063 -0.223229,0.81378 -0.328347,1.22244 -0.103937,0.408662 -0.204331,0.819686 -0.298819,1.23189 -0.0944883,0.412205 -0.184252,0.826772 -0.269292,1.24134 -0.0850394,0.415748 -0.164173,0.831497 -0.238583,1.25079 -0.0744095,0.418111 -0.144095,0.836221 -0.207874,1.25787 -0.0637796,0.420473 -0.124016,0.844489 -0.177165,1.26732 -0.0543308,0.424016 -0.102756,0.848032 -0.146457,1.27441 -0.0437008,0.426378 -0.0814961,0.853938 -0.114567,1.28268 -0.0330709,0.42874 -0.0602363,0.857481 -0.0814961,1.28858 -0.0212599,0.429922 -0.0377953,0.863386 -0.0496063,1.29567 -0.0106299,0.433465 -0.0165354,0.865749 -0.0165354,1.30158l0 95.5678 0 0.735827 0 96.3048c0,0.434646 0.00590552,0.868111 0.0165354,1.30158 0.0106299,0.432284 0.0271654,0.863386 0.0496063,1.29449 0.022441,0.431103 0.0496063,0.861024 0.0814961,1.28976 0.0330709,0.42874 0.0708662,0.8563 0.114567,1.2815 0.0437008,0.426378 0.0921261,0.851575 0.146457,1.27441 0.0543308,0.424016 0.113386,0.84567 0.177165,1.26732 0.0637796,0.420473 0.133465,0.840946 0.207874,1.25906 0.0744095,0.418111 0.154725,0.83504 0.238583,1.25079 0.0850394,0.415748 0.173622,0.829134 0.269292,1.24134 0.0944883,0.412205 0.193701,0.823229 0.298819,1.23189 0.103937,0.408662 0.214961,0.817323 0.328347,1.22244 0.114567,0.4063 0.232677,0.809056 0.356693,1.21181 0.124016,0.402756 0.252756,0.80315 0.386221,1.20236 0.133465,0.399213 0.270473,0.796064 0.413386,1.19055 0.141732,0.394488 0.290551,0.787796 0.441733,1.17874 0.152362,0.390945 0.307087,0.779528 0.468898,1.16693 0.166536,0.400394 0.337796,0.798426 0.51378,1.1941 0.175984,0.39567 0.355512,0.787796 0.540945,1.17756 0.184252,0.389764 0.373229,0.774804 0.56693,1.15984 0.193701,0.383859 0.392126,0.765355 0.594095,1.14331 0.201969,0.377953 0.409843,0.753544 0.62126,1.12559 0.211417,0.372048 0.426378,0.740552 0.646063,1.10669 0.219685,0.366142 0.442914,0.728741 0.670867,1.08898 0.217323,0.34252 0.437008,0.680315 0.661418,1.01811l0.034252 0.0507874 0 0.0011811 0.0318898 0.046063c0.226772,0.337796 0.455906,0.672048 0.688583,1.00276 0.244488,0.346063 0.491339,0.689764 0.742914,1.02992 0.251575,0.340158 0.507874,0.676772 0.767717,1.00984 0.259843,0.333071 0.522048,0.661418 0.790158,0.987402 0.266929,0.325985 0.539764,0.648426 0.81378,0.967324 0.275197,0.318898 0.552756,0.634252 0.83504,0.944883 0.281103,0.31063 0.56693,0.618898 0.8563,0.922442 0.28937,0.303544 0.581103,0.603544 0.87756,0.900001l1135.88 1135.88 0.900001 0.87756 0.922442 0.8563 0.944883 0.83504 0.966142 0.812599 0.988583 0.790158 1.00866 0.767717 1.02992 0.744095 1.05 0.720473 1.0689 0.69567 1.0878 0.670867 1.10787 0.646063 1.12559 0.62126 1.14331 0.594095 1.15984 0.568111 1.17756 0.540945 1.1941 0.51378 1.16693 0.468898 1.17874 0.441733 1.18937 0.413386 1.20118 0.38504 1.21181 0.357874 1.22244 0.328347 1.23189 0.297638 1.24134 0.269292 1.25079 0.238583 1.25906 0.209055 1.26614 0.177165 1.27559 0.146457 1.2815 0.113386 1.28858 0.0826772 1.29567 0.0496063 1.30158 0.0165354 439.639 0 37.6394 0 15.1158 0 37.6394 0 15.1158 0 37.6382 0 15.1158 0 37.6394 0 15.1146 0 37.6394 0 15.1146 0 37.6394 0 15.1158 0 37.6394 0 15.1158 0 37.6394 0 15.1158 0 37.6382 0 15.5835 0 1.30158 -0.0165354 1.29567 -0.0496063 1.28858 -0.0826772 1.28268 -0.113386 1.27441 -0.146457 1.26732 -0.177165 1.25787 -0.209055 1.25079 -0.238583 1.24134 -0.269292 1.23189 -0.298819 1.22244 -0.328347 1.21181 -0.356693 1.20118 -0.386221 1.19055 -0.413386 1.17874 -0.441733 1.16693 -0.468898 1.1941 -0.51378 1.17756 -0.539764 1.15984 -0.568111 1.14331 -0.594095 1.12559 -0.620079 1.10787 -0.646063 1.0878 -0.670867 1.07008 -0.69567 1.04882 -0.720473 1.02992 -0.744095 1.00866 -0.767717 0.988583 -0.790158 0.967324 -0.81378 0.944883 -0.833859 0.922442 -0.857481 0.900001 -0.87756 0.87756 -0.900001 0.857481 -0.922442 0.833859 -0.944883 0.81378 -0.967324 0.790158 -0.987402 0.767717 -1.00984 0.744095 -1.02992 0.720473 -1.04882 0.69567 -1.07008 0.670867 -1.08898 0.21378 -0.367323 70.4079 70.4079 42.4536 0 0 -149.473 1.51181 -0.754725 1.47992 -0.805512 1.44921 -0.855119 1.41614 -0.903544 1.38189 -0.950788 1.34646 -0.996851 1.31102 -1.04173 1.27323 -1.08662 1.23425 -1.12795 1.1941 -1.16929 1.15394 -1.21063 1.1126 -1.24961 1.06772 -1.28858 1.0252 -1.32402 0.979135 -1.36063 0.93189 -1.39606 0.884646 -1.42913 0.836221 -1.46102 0.785434 -1.49291 0.734646 -1.52244 0.682678 -1.55197 0.629528 -1.58032 0.574016 -1.6063 0.519685 -1.63347 0.461811 -1.65591 0.403937 -1.68071 0.346063 -1.70197 0.284646 -1.72441 0.223229 -1.74331 0.161811 -1.76221 0.0968505 -1.77992 0.0330709 -1.79646 -0.0330709 -1.79646 -0.0968505 -1.77992 -0.161811 -1.76221 -0.223229 -1.74331 -0.284646 -1.72323 -0.346063 -1.70315 -0.403937 -1.67953 -0.461811 -1.65709 -0.519685 -1.63228 -0.574016 -1.6063 -0.629528 -1.58032 -0.682678 -1.55197 -0.734646 -1.52244 -0.785434 -1.49291 -0.836221 -1.46221 -0.884646 -1.42795 -0.93189 -1.39606 -0.979135 -1.36063 -1.0252 -1.32402 -1.06772 -1.28858 -1.1126 -1.24961 -1.15394 -1.21063 -1.1941 -1.16929 -0.369685 -0.337796 2.71772 2.71772 -14.752 -14.752 0 -225.186 1.51181 -0.754725 1.47992 -0.805512 1.44921 -0.855119 1.41614 -0.903544 1.38189 -0.950788 1.34646 -0.996851 1.31102 -1.04173 1.27323 -1.08662 1.23425 -1.12795 1.1941 -1.16929 1.15394 -1.21063 1.1126 -1.24961 1.06772 -1.28858 1.0252 -1.32402 0.979135 -1.36063 0.93189 -1.39606 0.884646 -1.42795 0.836221 -1.46221 0.785434 -1.49291 0.734646 -1.52244 0.682678 -1.55197 0.629528 -1.58032 0.574016 -1.6063 0.519685 -1.63228 0.461811 -1.65709 0.403937 -1.67953 0.346063 -1.70315 0.284646 -1.72323 0.223229 -1.74331 0.161811 -1.76221 0.0968505 -1.77992 0.0330709 -1.79646 -0.0330709 -1.79646 -0.0968505 -1.77992 -0.161811 -1.76221 -0.223229 -1.74331 -0.284646 -1.72323 -0.346063 -1.70315 -0.403937 -1.67953 -0.461811 -1.65709 -0.519685 -1.63228 -0.574016 -1.6063 -0.629528 -1.58032 -0.682678 -1.55197 -0.734646 -1.52244 -0.785434 -1.49291 -0.836221 -1.46221 -0.884646 -1.42795 -0.93189 -1.39606 -0.979135 -1.36063 -1.0252 -1.32402 -1.06772 -1.28858 -15.8646 -15.8646 0 -227.249 1.51181 -0.754725 1.47992 -0.805512 1.44921 -0.855119 1.41614 -0.903544 1.38189 -0.950788 1.34646 -0.996851 1.31102 -1.04173 1.27323 -1.08662 1.23425 -1.12795 1.1941 -1.16929 1.15394 -1.21063 1.1126 -1.24961 1.06772 -1.28858 1.0252 -1.32402 0.979135 -1.36063 0.93189 -1.39606 0.884646 -1.42795 0.836221 -1.46221 0.785434 -1.49291 0.734646 -1.52244 0.682678 -1.55197 0.629528 -1.58032 0.574016 -1.6063 0.519685 -1.63228 0.461811 -1.65709 0.403937 -1.67953 0.346063 -1.70315 0.284646 -1.72323 0.223229 -1.74331 0.161811 -1.76221 0.0968505 -1.77992 0.0330709 -1.79646 -0.0330709 -1.79646 -0.0968505 -1.77992 -0.161811 -1.76221 -0.223229 -1.74331 -0.284646 -1.72441 -0.346063 -1.70197 -0.403937 -1.68071 -0.461811 -1.65591 -0.519685 -1.63347 -0.574016 -1.6063 -0.629528 -1.58032 -0.682678 -1.55197 -0.734646 -1.52244 -0.785434 -1.49291 -0.836221 -1.46102 -0.884646 -1.42913 -0.93189 -1.39606 -0.979135 -1.36063 -1.0252 -1.32402 -1.06772 -1.28858 -1.1126 -1.24961 -1.15394 -1.21063 -1.1941 -1.16929 -1.23425 -1.12795 -0.427559 -0.364961 5.12244 5.12244 -15.8646 -15.8646 0 -145.403 -1135.88 -1135.88 -42.4536 0 0 138.106 -78.3934 -78.3934c-0.296457,-0.296457 -0.596457,-0.588189 -0.900001,-0.87756 -0.303544,-0.28937 -0.611811,-0.576378 -0.922442,-0.857481 -0.311811,-0.282284 -0.625985,-0.559843 -0.944883,-0.833859 -0.318898,-0.275197 -0.641339,-0.546851 -0.966142,-0.81378 -0.325985,-0.266929 -0.655512,-0.530315 -0.988583,-0.790158 -0.333071,-0.259843 -0.670867,-0.516142 -1.00984,-0.767717 -0.340158,-0.251575 -0.681497,-0.499607 -1.02874,-0.744095 -0.346063,-0.244488 -0.698032,-0.484252 -1.05,-0.720473 -0.35315,-0.236221 -0.709843,-0.467717 -1.0689,-0.69567 -0.359055,-0.227953 -0.724016,-0.451181 -1.08898,-0.670867 -0.366142,-0.219685 -0.734646,-0.434646 -1.10669,-0.646063 -0.372048,-0.211417 -0.747638,-0.418111 -1.12559,-0.620079 -0.377953,-0.201969 -0.759449,-0.401575 -1.14331,-0.595276 -0.383859,-0.193701 -0.770079,-0.382677 -1.15984,-0.56693 -0.389764,-0.184252 -0.78189,-0.364961 -1.17756,-0.540945 -0.394488,-0.175984 -0.79252,-0.347244 -1.1941,-0.51378 -0.387402,-0.16063 -0.775985,-0.316536 -1.16693,-0.468898 -0.390945,-0.151181 -0.784253,-0.298819 -1.17874,-0.441733 -0.394488,-0.142913 -0.791339,-0.279921 -1.19055,-0.413386 -0.399213,-0.133465 -0.800788,-0.262205 -1.20236,-0.38504 -0.402756,-0.124016 -0.806694,-0.244488 -1.21181,-0.357874 -0.4063,-0.114567 -0.81378,-0.223229 -1.22244,-0.328347 -0.408662,-0.103937 -0.819686,-0.20315 -1.23189,-0.297638 -0.412205,-0.0944883 -0.826772,-0.184252 -1.24134,-0.269292 -0.415748,-0.0850394 -0.832678,-0.164173 -1.25079,-0.238583 -0.418111,-0.0744095 -0.837402,-0.145276 -1.25906,-0.209055 -0.420473,-0.0637796 -0.843308,-0.124016 -1.26732,-0.177165 -0.424016,-0.0543308 -0.848032,-0.102756 -1.27441,-0.146457 -0.426378,-0.0437008 -0.852757,-0.080315 -1.2815,-0.113386 -0.42874,-0.0330709 -0.858662,-0.0602363 -1.28976,-0.0826772 -0.429922,-0.0212599 -0.862205,-0.0377953 -1.29449,-0.0496063 -0.432284,-0.0106299 -0.865749,-0.0165354 -1.30158,-0.0165354l-15.5835 0 -37.6382 0 -15.1158 0 -37.6394 0z"/>
   </g>
  </g>
  <path class="fil2" d="M1024 -0.0011811c565.541,0 1024,458.461 1024,1024 0,565.541 -458.461,1024 -1024,1024 -565.541,0 -1024,-458.461 -1024,-1024 0,-565.541 458.461,-1024 1024,-1024z"/>
  <g id="_441532080">
   <polygon id="_441527112" class="fil3" points="1530.02,1534.22 1530.02,513.778 1572.47,513.778 1572.47,1534.22 "/>
   <polygon id="_441530064" class="fil3" points="1460.85,1001.9 1541.91,1001.9 1541.91,1044.35 1460.85,1044.35 "/>
   <polygon id="_441556032" class="fil3" points="1453.01,1319.88 1549.75,1319.88 1549.75,1362.33 1453.01,1362.33 "/>
   <polygon id="_441555696" class="fil3" points="1460.64,683.445 1542.13,683.445 1542.13,725.899 1460.64,725.899 "/>
   <ellipse id="_441540864" class="fil4" cx="1551.66" cy="1024.78" rx="48.3403" ry="48.3403"/>
   <ellipse id="_441540240" class="fil4" cx="1551.66" cy="706.537" rx="48.3403" ry="48.3403"/>
   <ellipse id="_441527832" class="fil4" cx="1551.66" cy="1341.11" rx="48.3403" ry="48.3403"/>
   <path id="_441530808" class="fil5" d="M1434.75 880.484c6.40985,2.66457 12.1382,6.51615 16.8756,11.2536l0 0.0838583c4.77638,4.77756 8.63032,10.4776 11.2547,16.7941 2.57244,6.19134 3.99567,12.9071 3.99567,19.8638l0 192.608c0,6.95552 -1.42323,13.6736 -3.99567,19.865 -2.66457,6.40985 -6.51733,12.1394 -11.2547,16.8768 -4.73859,4.73859 -10.4658,8.59135 -16.8768,11.2547 -6.19134,2.57362 -12.9071,3.99567 -19.8638,3.99567l-914.898 0c-6.9567,0 -13.6725,-1.42323 -19.8626,-3.99567 -6.41103,-2.66457 -12.1382,-6.51851 -16.8756,-11.2547 -4.73741,-4.73741 -8.58898,-10.4669 -11.2536,-16.8768 -2.57362,-6.19134 -3.99567,-12.9095 -3.99567,-19.865l0 -192.608c0,-6.9567 1.42205,-13.6725 3.99567,-19.8638 2.62441,-6.31654 6.47717,-12.0165 11.2536,-16.7941l0 -0.0838583c4.73859,-4.73741 10.4658,-8.59135 16.8756,-11.2536 6.19016,-2.57362 12.9071,-3.99567 19.8626,-3.99567l914.898 0c6.95552,0 13.6725,1.42205 19.865,3.99567z"/>
   <path id="_441553704" class="fil6" d="M1466.88 1024.78l0 96.3036c0,6.95552 -1.42323,13.6736 -3.99567,19.865 -2.66457,6.40985 -6.51733,12.1394 -11.2547,16.8768 -4.73859,4.73859 -10.4658,8.59135 -16.8768,11.2547 -6.19134,2.57362 -12.9071,3.99567 -19.8638,3.99567l-914.898 0c-6.9567,0 -13.6725,-1.42323 -19.8626,-3.99567 -6.41103,-2.66457 -12.1382,-6.51851 -16.8756,-11.2547 -4.73741,-4.73741 -8.58898,-10.4669 -11.2536,-16.8768 -2.57362,-6.19134 -3.99567,-12.9095 -3.99567,-19.865l0 -96.3036 1018.88 0z"/>
   <path id="_441528000" class="fil5" d="M1434.75 880.484c6.40985,2.66457 12.1382,6.51615 16.8756,11.2536l0 0.0838583c4.77638,4.77756 8.63032,10.4776 11.2547,16.7941 2.57244,6.19134 3.99567,12.9071 3.99567,19.8638l0 96.2576 0 0.0472441 -1018.88 0 0 -0.735827 0 -95.569c0,-6.9567 1.42205,-13.6725 3.99567,-19.8638 2.62441,-6.31654 6.47717,-12.0165 11.2536,-16.7941l0 -0.0838583c4.73859,-4.73741 10.4658,-8.59135 16.8756,-11.2536 6.19016,-2.57362 12.9071,-3.99567 19.8626,-3.99567l914.898 0c6.95552,0 13.6725,1.42205 19.865,3.99567z"/>
   <rect id="_441546192" class="fil7" x="939.626" y="921.721" width="37.639" height="25.231"/>
   <rect id="_441533856" class="fil7" x="992.381" y="921.721" width="37.639" height="25.231"/>
   <rect id="_441550320" class="fil7" x="1045.14" y="921.721" width="37.639" height="25.231"/>
   <rect id="_441556632" class="fil7" x="1097.89" y="921.721" width="37.639" height="25.231"/>
   <rect id="_441552504" class="fil7" x="1150.64" y="921.721" width="37.639" height="25.231"/>
   <rect id="_441545808" class="fil7" x="1203.4" y="921.721" width="37.639" height="25.231"/>
   <rect id="_441531888" class="fil7" x="1256.15" y="921.721" width="37.639" height="25.231"/>
   <rect id="_441549864" class="fil7" x="1308.91" y="921.721" width="37.639" height="25.231"/>
   <rect id="_441552624" class="fil7" x="1361.66" y="921.721" width="37.639" height="25.231"/>
   <rect id="_441528408" class="fil7" x="939.626" y="876.488" width="37.639" height="25.231"/>
   <rect id="_441529680" class="fil7" x="992.381" y="876.488" width="37.639" height="25.231"/>
   <rect id="_441534192" class="fil7" x="1045.14" y="876.488" width="37.639" height="25.231"/>
   <rect id="_441534912" class="fil7" x="1097.89" y="876.488" width="37.639" height="25.231"/>
   <rect id="_441540696" class="fil7" x="1150.64" y="876.488" width="37.639" height="25.231"/>
   <rect id="_441537432" class="fil7" x="1203.4" y="876.488" width="37.639" height="25.231"/>
   <rect id="_441527232" class="fil7" x="1256.15" y="876.488" width="37.639" height="25.231"/>
   <rect id="_441550512" class="fil7" x="1308.91" y="876.488" width="37.639" height="25.231"/>
   <rect id="_441555336" class="fil7" x="1361.66" y="876.488" width="37.639" height="25.231"/>
   <rect id="_441544968" class="fil7" x="939.626" y="1147.85" width="37.639" height="25.231"/>
   <rect id="_441535128" class="fil7" x="992.381" y="1147.85" width="37.639" height="25.231"/>
   <rect id="_441528528" class="fil7" x="1045.14" y="1147.85" width="37.639" height="25.231"/>
   <rect id="_441556920" class="fil7" x="1097.89" y="1147.85" width="37.639" height="25.231"/>
   <rect id="_441526800" class="fil7" x="1150.64" y="1147.85" width="37.639" height="25.231"/>
   <rect id="_441533568" class="fil7" x="1203.4" y="1147.85" width="37.639" height="25.231"/>
   <rect id="_441532200" class="fil7" x="1256.15" y="1147.85" width="37.639" height="25.231"/>
   <rect id="_441536784" class="fil7" x="1308.91" y="1147.85" width="37.639" height="25.231"/>
   <rect id="_441544344" class="fil7" x="1361.66" y="1147.85" width="37.639" height="25.231"/>
   <rect id="_441553584" class="fil7" x="939.626" y="1102.62" width="37.639" height="25.231"/>
   <rect id="_441546720" class="fil7" x="992.381" y="1102.62" width="37.639" height="25.231"/>
   <rect id="_441555504" class="fil7" x="1045.14" y="1102.62" width="37.639" height="25.231"/>
   <rect id="_441539856" class="fil7" x="1097.89" y="1102.62" width="37.639" height="25.231"/>
   <rect id="_441531864" class="fil7" x="1150.64" y="1102.62" width="37.639" height="25.231"/>
   <rect id="_441537120" class="fil7" x="1203.4" y="1102.62" width="37.639" height="25.231"/>
   <rect id="_441526272" class="fil7" x="1256.15" y="1102.62" width="37.639" height="25.231"/>
   <rect id="_441541080" class="fil7" x="1308.91" y="1102.62" width="37.639" height="25.231"/>
   <rect id="_441527064" class="fil7" x="1361.66" y="1102.62" width="37.639" height="25.231"/>
   <rect id="_441544824" class="fil8" x="924.754" y="1020.63" width="542.122" height="9.94822"/>
   <path id="_441555720" class="fil9" d="M611.597 1009.77c-3.83977,-3.83859 -9.14764,-6.21497 -15.0106,-6.21497 -5.86182,0 -11.1709,2.3752 -15.0106,6.21497 -3.83977,3.83977 -6.21497,9.14883 -6.21497,15.0106 0,5.863 2.37638,11.1709 6.21497,15.0106 3.83977,3.83977 9.14883,6.21497 15.0106,6.21497 5.863,0 11.1709,-2.37638 15.0106,-6.21497 3.83859,-3.83977 6.21497,-9.14764 6.21497,-15.0106 0,-5.86182 -2.3752,-11.1709 -6.21497,-15.0106z"/>
   <path id="_441538200" class="fil10" d="M596.586 939.89c22.5721,0 44.0693,8.90906 60.0272,24.8669 6.04489,6.04371 11.0764,12.8835 14.9965,20.2736l214.988 0.138189c21.8717,0 39.6166,17.7437 39.6166,39.6154 0,21.8705 -17.7437,39.6154 -39.6142,39.6154l-0.00236221 0 -214.988 0.137008c-3.92008,7.39134 -8.95158,14.2299 -14.9965,20.2748 -15.9579,15.9579 -37.4551,24.8669 -60.0272,24.8669 -22.5732,0 -44.0693,-8.90906 -60.0272,-24.8669 -15.9579,-15.9579 -24.8669,-37.4551 -24.8669,-60.0272 0,-22.5732 8.90906,-44.0693 24.8669,-60.0272 15.9579,-15.9579 37.454,-24.8669 60.0272,-24.8669z"/>
   <path id="_441552576" class="fil8" d="M596.586 961.105c17.5819,0 33.5032,7.12914 45.026,18.652 11.524,11.524 18.6543,27.4441 18.6543,45.0272 0,17.5819 -7.13032,33.502 -18.6543,45.026 -11.5228,11.524 -27.4441,18.6532 -45.026,18.6532 -17.5831,0 -33.5032,-7.12914 -45.0272,-18.6532 -11.5228,-11.524 -18.652,-27.4441 -18.652,-45.026 0,-17.5831 7.12914,-33.5032 18.652,-45.0272 11.524,-11.5228 27.4441,-18.652 45.0272,-18.652z"/>
   <path id="_441529560" class="fil11" d="M596.586 973.018c14.2925,0 27.2351,5.79567 36.6036,15.163 9.36733,9.36851 15.1642,22.3099 15.1642,36.6036 0,14.2925 -5.79685,27.2351 -15.1642,36.6036 -9.36851,9.36733 -22.311,15.163 -36.6036,15.163 -14.2937,0 -27.2351,-5.79567 -36.6036,-15.163 -9.36733,-9.36851 -15.163,-22.311 -15.163,-36.6036 0,-14.2937 5.79567,-27.2351 15.163,-36.6036 9.36851,-9.36733 22.3099,-15.163 36.6036,-15.163z"/>
   <path id="_441542808" class="fil12" d="M883.061 1006.38c10.1622,0 18.4004,8.23938 18.4004,18.4016 0,10.1622 -8.2382,18.4004 -18.4004,18.4004 -10.1622,0 -18.4016,-8.2382 -18.4016,-18.4004 0,-10.1622 8.23938,-18.4016 18.4016,-18.4016z"/>
   <path id="_441545040" class="fil13" d="M807.755 1006.38c10.1622,0 18.4004,8.23938 18.4004,18.4016 0,10.1622 -8.2382,18.4004 -18.4004,18.4004 -10.1622,0 -18.4004,-8.2382 -18.4004,-18.4004 0,-10.1622 8.2382,-18.4016 18.4004,-18.4016z"/>
   <path id="_441546672" class="fil14" d="M732.449 1006.38c10.1622,0 18.4004,8.23938 18.4004,18.4016 0,10.1622 -8.2382,18.4004 -18.4004,18.4004 -10.1622,0 -18.4004,-8.2382 -18.4004,-18.4004 0,-10.1622 8.2382,-18.4016 18.4004,-18.4016z"/>
   <path id="_441532272" class="fil5" d="M1434.75 1196.8c6.40985,2.66457 12.1382,6.51733 16.8756,11.2547l0 0.0826772c4.77638,4.77756 8.63032,10.4787 11.2547,16.7941 2.57244,6.19252 3.99567,12.9083 3.99567,19.865l0 192.608c0,6.95552 -1.42323,13.6725 -3.99567,19.865 -2.66457,6.40985 -6.51733,12.1394 -11.2547,16.8768 -4.73859,4.73741 -10.4658,8.59016 -16.8768,11.2536 -6.19134,2.57362 -12.9071,3.99685 -19.8638,3.99685l-914.898 0c-6.9567,0 -13.6725,-1.42323 -19.8626,-3.99567 -6.41103,-2.66575 -12.1382,-6.51851 -16.8756,-11.2547 -4.73741,-4.73741 -8.58898,-10.4669 -11.2536,-16.8768 -2.57362,-6.19252 -3.99567,-12.9095 -3.99567,-19.865l0 -192.608c0,-6.9567 1.42205,-13.6725 3.99567,-19.865 2.62441,-6.31536 6.47717,-12.0165 11.2536,-16.7941l0 -0.0826772c4.73859,-4.73741 10.4658,-8.59135 16.8756,-11.2547 6.19016,-2.57244 12.9071,-3.99567 19.8626,-3.99567l914.898 0c6.95552,0 13.6725,1.42323 19.865,3.99567z"/>
   <path id="_441530880" class="fil6" d="M1466.88 1341.1l0 96.3048c0,6.95552 -1.42323,13.6725 -3.99567,19.865 -2.66457,6.40985 -6.51733,12.1394 -11.2547,16.8768 -4.73859,4.73741 -10.4658,8.59016 -16.8768,11.2536 -6.19134,2.57362 -12.9071,3.99685 -19.8638,3.99685l-914.898 0c-6.9567,0 -13.6725,-1.42323 -19.8626,-3.99567 -6.41103,-2.66575 -12.1382,-6.51851 -16.8756,-11.2547 -4.73741,-4.73741 -8.58898,-10.4669 -11.2536,-16.8768 -2.57362,-6.19252 -3.99567,-12.9095 -3.99567,-19.865l0 -96.3048 1018.88 0z"/>
   <path id="_441552984" class="fil5" d="M1434.75 1196.8c6.40985,2.66457 12.1382,6.51733 16.8756,11.2547l0 0.0826772c4.77638,4.77756 8.63032,10.4787 11.2547,16.7941 2.57244,6.19252 3.99567,12.9083 3.99567,19.865l0 96.2576 0 0.046063 -1018.88 0 0 -0.735827 0 -95.5678c0,-6.9567 1.42205,-13.6725 3.99567,-19.865 2.62441,-6.31536 6.47717,-12.0165 11.2536,-16.7941l0 -0.0826772c4.73859,-4.73741 10.4658,-8.59135 16.8756,-11.2547 6.19016,-2.57244 12.9071,-3.99567 19.8626,-3.99567l914.898 0c6.95552,0 13.6725,1.42323 19.865,3.99567z"/>
   <rect id="_441532296" class="fil7" x="939.626" y="1238.04" width="37.639" height="25.231"/>
   <rect id="_441534816" class="fil7" x="992.381" y="1238.04" width="37.639" height="25.231"/>
   <rect id="_441549408" class="fil7" x="1045.14" y="1238.04" width="37.639" height="25.231"/>
   <rect id="_441542976" class="fil7" x="1097.89" y="1238.04" width="37.639" height="25.231"/>
   <rect id="_441550560" class="fil7" x="1150.64" y="1238.04" width="37.639" height="25.231"/>
   <rect id="_441555096" class="fil7" x="1203.4" y="1238.04" width="37.639" height="25.231"/>
   <rect id="_441535536" class="fil7" x="1256.15" y="1238.04" width="37.639" height="25.231"/>
   <rect id="_441556080" class="fil7" x="1308.91" y="1238.04" width="37.639" height="25.231"/>
   <rect id="_441550584" class="fil7" x="1361.66" y="1238.04" width="37.639" height="25.231"/>
   <rect id="_441532848" class="fil7" x="939.626" y="1192.81" width="37.639" height="25.231"/>
   <rect id="_441534744" class="fil7" x="992.381" y="1192.81" width="37.639" height="25.231"/>
   <rect id="_441534864" class="fil7" x="1045.14" y="1192.81" width="37.639" height="25.231"/>
   <rect id="_441544008" class="fil7" x="1097.89" y="1192.81" width="37.639" height="25.231"/>
   <rect id="_441539880" class="fil7" x="1150.64" y="1192.81" width="37.639" height="25.231"/>
   <rect id="_441528936" class="fil7" x="1203.4" y="1192.81" width="37.639" height="25.231"/>
   <rect id="_441541728" class="fil7" x="1256.15" y="1192.81" width="37.639" height="25.231"/>
   <rect id="_441531816" class="fil7" x="1308.91" y="1192.81" width="37.639" height="25.231"/>
   <rect id="_441535896" class="fil7" x="1361.66" y="1192.81" width="37.639" height="25.231"/>
   <rect id="_441558216" class="fil7" x="939.626" y="1464.17" width="37.639" height="25.231"/>
   <rect id="_441527640" class="fil7" x="992.381" y="1464.17" width="37.639" height="25.231"/>
   <rect id="_441544416" class="fil7" x="1045.14" y="1464.17" width="37.639" height="25.231"/>
   <rect id="_441552528" class="fil7" x="1097.89" y="1464.17" width="37.639" height="25.231"/>
   <rect id="_441543672" class="fil7" x="1150.64" y="1464.17" width="37.639" height="25.231"/>
   <rect id="_441539544" class="fil7" x="1203.4" y="1464.17" width="37.639" height="25.231"/>
   <rect id="_441532920" class="fil7" x="1256.15" y="1464.17" width="37.639" height="25.231"/>
   <rect id="_441549696" class="fil7" x="1308.91" y="1464.17" width="37.639" height="25.231"/>
   <rect id="_441536088" class="fil7" x="1361.66" y="1464.17" width="37.639" height="25.231"/>
   <rect id="_441548664" class="fil7" x="939.626" y="1418.94" width="37.639" height="25.231"/>
   <rect id="_441555192" class="fil7" x="992.381" y="1418.94" width="37.639" height="25.231"/>
   <rect id="_441534504" class="fil7" x="1045.14" y="1418.94" width="37.639" height="25.231"/>
   <rect id="_441537864" class="fil7" x="1097.89" y="1418.94" width="37.639" height="25.231"/>
   <rect id="_441533304" class="fil7" x="1150.64" y="1418.94" width="37.639" height="25.231"/>
   <rect id="_441532248" class="fil7" x="1203.4" y="1418.94" width="37.639" height="25.231"/>
   <rect id="_441548928" class="fil7" x="1256.15" y="1418.94" width="37.639" height="25.231"/>
   <rect id="_441527544" class="fil7" x="1308.91" y="1418.94" width="37.639" height="25.231"/>
   <rect id="_441548904" class="fil7" x="1361.66" y="1418.94" width="37.639" height="25.231"/>
   <rect id="_441535248" class="fil8" x="924.754" y="1336.95" width="542.122" height="9.94822"/>
   <path id="_441528744" class="fil9" d="M611.597 1326.1c-3.83977,-3.83977 -9.14764,-6.21497 -15.0106,-6.21497 -5.86182,0 -11.1709,2.3752 -15.0106,6.21497 -3.83977,3.83859 -6.21497,9.14883 -6.21497,15.0095 0,5.86418 2.37638,11.1721 6.21497,15.0106 3.83977,3.83977 9.14883,6.21615 15.0106,6.21615 5.863,0 11.1709,-2.37638 15.0106,-6.21615 3.83859,-3.83859 6.21497,-9.14646 6.21497,-15.0106 0,-5.86063 -2.3752,-11.1709 -6.21497,-15.0095z"/>
   <path id="_441533952" class="fil10" d="M596.586 1256.21c22.5721,0 44.0693,8.90788 60.0272,24.8658 6.04489,6.04371 11.0764,12.8835 14.9965,20.2748l214.988 0.138189c21.8717,0 39.6166,17.7425 39.6166,39.6142 0,21.8705 -17.7437,39.6154 -39.6142,39.6154l-0.00236221 0 -214.988 0.138189c-3.92008,7.39134 -8.95158,14.2299 -14.9965,20.2736 -15.9579,15.9591 -37.4551,24.8669 -60.0272,24.8669 -22.5732,0 -44.0693,-8.90788 -60.0272,-24.8669 -15.9579,-15.9579 -24.8669,-37.4551 -24.8669,-60.0272 0,-22.5721 8.90906,-44.0681 24.8669,-60.0272 15.9579,-15.9579 37.454,-24.8658 60.0272,-24.8658z"/>
   <path id="_441545184" class="fil8" d="M596.586 1277.43c17.5819,0 33.5032,7.12914 45.026,18.6532 11.524,11.524 18.6543,27.4441 18.6543,45.026 0,17.5819 -7.13032,33.5032 -18.6543,45.0272 -11.5228,11.524 -27.4441,18.6532 -45.026,18.6532 -17.5831,0 -33.5032,-7.12914 -45.0272,-18.6532 -11.5228,-11.524 -18.652,-27.4453 -18.652,-45.0272 0,-17.5819 7.12914,-33.502 18.652,-45.026 11.524,-11.524 27.4441,-18.6532 45.0272,-18.6532z"/>
   <path id="_441533352" class="fil11" d="M596.586 1289.34c14.2925,0 27.2351,5.79567 36.6036,15.1642 9.36733,9.36733 15.1642,22.3099 15.1642,36.6024 0,14.2937 -5.79685,27.2351 -15.1642,36.6036 -9.36851,9.36851 -22.311,15.1642 -36.6036,15.1642 -14.2937,0 -27.2351,-5.79567 -36.6036,-15.1642 -9.36733,-9.36851 -15.163,-22.3099 -15.163,-36.6036 0,-14.2925 5.79567,-27.2351 15.163,-36.6024 9.36851,-9.36851 22.3099,-15.1642 36.6036,-15.1642z"/>
   <path id="_441529776" class="fil12" d="M883.061 1322.7c10.1622,0 18.4004,8.2382 18.4004,18.4004 0,10.1634 -8.2382,18.4016 -18.4004,18.4016 -10.1622,0 -18.4016,-8.2382 -18.4016,-18.4016 0,-10.1622 8.23938,-18.4004 18.4016,-18.4004z"/>
   <path id="_441536328" class="fil13" d="M807.755 1322.7c10.1622,0 18.4004,8.2382 18.4004,18.4004 0,10.1634 -8.2382,18.4016 -18.4004,18.4016 -10.1622,0 -18.4004,-8.2382 -18.4004,-18.4016 0,-10.1622 8.2382,-18.4004 18.4004,-18.4004z"/>
   <path id="_441556992" class="fil14" d="M732.449 1322.7c10.1622,0 18.4004,8.2382 18.4004,18.4004 0,10.1634 -8.2382,18.4016 -18.4004,18.4016 -10.1622,0 -18.4004,-8.2382 -18.4004,-18.4016 0,-10.1622 8.2382,-18.4004 18.4004,-18.4004z"/>
   <path id="_441555480" class="fil5" d="M1434.75 562.236c6.40985,2.66457 12.1382,6.51733 16.8756,11.2547l0 0.0826772c4.77638,4.77756 8.63032,10.4787 11.2547,16.7941 2.57244,6.19252 3.99567,12.9083 3.99567,19.865l0 192.608c0,6.95552 -1.42323,13.6725 -3.99567,19.865 -2.66457,6.40985 -6.51733,12.1394 -11.2547,16.8768 -4.73859,4.73741 -10.4658,8.59135 -16.8768,11.2536 -6.19134,2.57362 -12.9071,3.99685 -19.8638,3.99685l-914.898 0c-6.9567,0 -13.6725,-1.42323 -19.8626,-3.99567 -6.41103,-2.66575 -12.1382,-6.51851 -16.8756,-11.2547 -4.73741,-4.73741 -8.58898,-10.4669 -11.2536,-16.8768 -2.57362,-6.19252 -3.99567,-12.9095 -3.99567,-19.865l0 -192.608c0,-6.9567 1.42205,-13.6725 3.99567,-19.865 2.62441,-6.31536 6.47717,-12.0165 11.2536,-16.7941l0 -0.0826772c4.73859,-4.73741 10.4658,-8.59135 16.8756,-11.2547 6.19016,-2.57244 12.9071,-3.99567 19.8626,-3.99567l914.898 0c6.95552,0 13.6725,1.42323 19.865,3.99567z"/>
   <path id="_441553104" class="fil6" d="M1466.88 706.537l0 96.3036c0,6.95552 -1.42323,13.6725 -3.99567,19.865 -2.66457,6.40985 -6.51733,12.1394 -11.2547,16.8768 -4.73859,4.73741 -10.4658,8.59135 -16.8768,11.2536 -6.19134,2.57362 -12.9071,3.99685 -19.8638,3.99685l-914.898 0c-6.9567,0 -13.6725,-1.42323 -19.8626,-3.99567 -6.41103,-2.66575 -12.1382,-6.51851 -16.8756,-11.2547 -4.73741,-4.73741 -8.58898,-10.4669 -11.2536,-16.8768 -2.57362,-6.19252 -3.99567,-12.9095 -3.99567,-19.865l0 -96.3036 1018.88 0z"/>
   <path id="_441532632" class="fil5" d="M1434.75 562.236c6.40985,2.66457 12.1382,6.51733 16.8756,11.2547l0 0.0826772c4.77638,4.77756 8.63032,10.4787 11.2547,16.7941 2.57244,6.19252 3.99567,12.9083 3.99567,19.865l0 96.2576 0 0.0472441 -1018.88 0 0 -0.737008 0 -95.5678c0,-6.9567 1.42205,-13.6725 3.99567,-19.865 2.62441,-6.31536 6.47717,-12.0165 11.2536,-16.7941l0 -0.0826772c4.73859,-4.73741 10.4658,-8.59135 16.8756,-11.2547 6.19016,-2.57244 12.9071,-3.99567 19.8626,-3.99567l914.898 0c6.95552,0 13.6725,1.42323 19.865,3.99567z"/>
   <rect id="_441546360" class="fil7" x="939.626" y="603.473" width="37.639" height="25.231"/>
   <rect id="_441553920" class="fil7" x="992.381" y="603.473" width="37.639" height="25.231"/>
   <rect id="_441534624" class="fil7" x="1045.14" y="603.473" width="37.639" height="25.231"/>
   <rect id="_441547176" class="fil7" x="1097.89" y="603.473" width="37.639" height="25.231"/>
   <rect id="_441557352" class="fil7" x="1150.64" y="603.473" width="37.639" height="25.231"/>
   <rect id="_441545640" class="fil7" x="1203.4" y="603.473" width="37.639" height="25.231"/>
   <rect id="_441553752" class="fil7" x="1256.15" y="603.473" width="37.639" height="25.231"/>
   <rect id="_441551472" class="fil7" x="1308.91" y="603.473" width="37.639" height="25.231"/>
   <rect id="_441546984" class="fil7" x="1361.66" y="603.473" width="37.639" height="25.231"/>
   <rect id="_441544560" class="fil7" x="939.626" y="558.241" width="37.639" height="25.231"/>
   <rect id="_441548256" class="fil7" x="992.381" y="558.241" width="37.639" height="25.231"/>
   <rect id="_441555240" class="fil7" x="1045.14" y="558.241" width="37.639" height="25.231"/>
   <rect id="_441529008" class="fil7" x="1097.89" y="558.241" width="37.639" height="25.231"/>
   <rect id="_441531912" class="fil7" x="1150.64" y="558.241" width="37.639" height="25.231"/>
   <rect id="_441534480" class="fil7" x="1203.4" y="558.241" width="37.639" height="25.231"/>
   <rect id="_441553824" class="fil7" x="1256.15" y="558.241" width="37.639" height="25.231"/>
   <rect id="_441537528" class="fil7" x="1308.91" y="558.241" width="37.639" height="25.231"/>
   <rect id="_441531096" class="fil7" x="1361.66" y="558.241" width="37.639" height="25.231"/>
   <rect id="_441527376" class="fil7" x="939.626" y="829.602" width="37.639" height="25.231"/>
   <rect id="_441546456" class="fil7" x="992.381" y="829.602" width="37.639" height="25.231"/>
   <rect id="_441545928" class="fil7" x="1045.14" y="829.602" width="37.639" height="25.231"/>
   <rect id="_441541104" class="fil7" x="1097.89" y="829.602" width="37.639" height="25.231"/>
   <rect id="_441545088" class="fil7" x="1150.64" y="829.602" width="37.639" height="25.231"/>
   <rect id="_441545760" class="fil7" x="1203.4" y="829.602" width="37.639" height="25.231"/>
   <rect id="_441547416" class="fil7" x="1256.15" y="829.602" width="37.639" height="25.231"/>
   <rect id="_441528240" class="fil7" x="1308.91" y="829.602" width="37.639" height="25.231"/>
   <rect id="_441541800" class="fil7" x="1361.66" y="829.602" width="37.639" height="25.231"/>
   <rect id="_441531192" class="fil7" x="939.626" y="784.37" width="37.639" height="25.231"/>
   <rect id="_441528888" class="fil7" x="992.381" y="784.37" width="37.639" height="25.231"/>
   <rect id="_441534888" class="fil7" x="1045.14" y="784.37" width="37.639" height="25.231"/>
   <rect id="_441546744" class="fil7" x="1097.89" y="784.37" width="37.639" height="25.231"/>
   <rect id="_441546768" class="fil7" x="1150.64" y="784.37" width="37.639" height="25.231"/>
   <rect id="_441535656" class="fil7" x="1203.4" y="784.37" width="37.639" height="25.231"/>
   <rect id="_441550224" class="fil7" x="1256.15" y="784.37" width="37.639" height="25.231"/>
   <rect id="_441550848" class="fil7" x="1308.91" y="784.37" width="37.639" height="25.231"/>
   <rect id="_441529464" class="fil7" x="1361.66" y="784.37" width="37.639" height="25.231"/>
   <rect id="_441533328" class="fil8" x="924.754" y="702.38" width="542.122" height="9.94822"/>
   <path id="_441546240" class="fil9" d="M611.597 691.527c-3.83977,-3.83977 -9.14764,-6.21497 -15.0106,-6.21497 -5.86182,0 -11.1709,2.3752 -15.0106,6.21497 -3.83977,3.83859 -6.21497,9.14883 -6.21497,15.0106 0,5.863 2.37638,11.1709 6.21497,15.0095 3.83977,3.83977 9.14883,6.21615 15.0106,6.21615 5.863,0 11.1709,-2.37638 15.0106,-6.21615 3.83859,-3.83859 6.21497,-9.14646 6.21497,-15.0095 0,-5.86182 -2.3752,-11.1721 -6.21497,-15.0106z"/>
   <path id="_441545160" class="fil10" d="M596.586 621.643c22.5721,0 44.0693,8.90788 60.0272,24.8658 6.04489,6.04489 11.0764,12.8835 14.9965,20.2748l214.988 0.138189c21.8717,0 39.6166,17.7425 39.6166,39.6154 0,21.8693 -17.7437,39.6142 -39.6142,39.6142l-0.00236221 0 -214.988 0.138189c-3.92008,7.39134 -8.95158,14.2299 -14.9965,20.2736 -15.9579,15.9591 -37.4551,24.8669 -60.0272,24.8669 -22.5732,0 -44.0693,-8.90788 -60.0272,-24.8669 -15.9579,-15.9579 -24.8669,-37.4551 -24.8669,-60.026 0,-22.5732 8.90906,-44.0693 24.8669,-60.0284 15.9579,-15.9579 37.454,-24.8658 60.0272,-24.8658z"/>
   <path id="_441533424" class="fil8" d="M596.586 642.857c17.5819,0 33.5032,7.12914 45.026,18.6532 11.524,11.524 18.6543,27.4441 18.6543,45.0272 0,17.5807 -7.13032,33.502 -18.6543,45.026 -11.5228,11.524 -27.4441,18.6532 -45.026,18.6532 -17.5831,0 -33.5032,-7.12914 -45.0272,-18.6532 -11.5228,-11.524 -18.652,-27.4453 -18.652,-45.026 0,-17.5831 7.12914,-33.5032 18.652,-45.0272 11.524,-11.524 27.4441,-18.6532 45.0272,-18.6532z"/>
   <path id="_441557760" class="fil11" d="M596.586 654.769c14.2925,0 27.2351,5.79567 36.6036,15.1642 9.36733,9.36733 15.1642,22.3099 15.1642,36.6036 0,14.2925 -5.79685,27.2339 -15.1642,36.6024 -9.36851,9.36851 -22.311,15.1642 -36.6036,15.1642 -14.2937,0 -27.2351,-5.79567 -36.6036,-15.1642 -9.36733,-9.36851 -15.163,-22.3099 -15.163,-36.6024 0,-14.2937 5.79567,-27.2362 15.163,-36.6036 9.36851,-9.36851 22.3099,-15.1642 36.6036,-15.1642z"/>
   <path id="_441531960" class="fil12" d="M883.061 688.136c10.1622,0 18.4004,8.2382 18.4004,18.4016 0,10.1622 -8.2382,18.4004 -18.4004,18.4004 -10.1622,0 -18.4016,-8.2382 -18.4016,-18.4004 0,-10.1634 8.23938,-18.4016 18.4016,-18.4016z"/>
   <path id="_441554448" class="fil13" d="M807.755 688.136c10.1622,0 18.4004,8.2382 18.4004,18.4016 0,10.1622 -8.2382,18.4004 -18.4004,18.4004 -10.1622,0 -18.4004,-8.2382 -18.4004,-18.4004 0,-10.1634 8.2382,-18.4016 18.4004,-18.4016z"/>
   <path id="_441547536" class="fil14" d="M732.449 688.136c10.1622,0 18.4004,8.2382 18.4004,18.4016 0,10.1622 -8.2382,18.4004 -18.4004,18.4004 -10.1622,0 -18.4004,-8.2382 -18.4004,-18.4004 0,-10.1634 8.2382,-18.4016 18.4004,-18.4016z"/>
  </g>
 </g>
</svg>
